<svg viewBox="-0.4 -0.4 0.8 0.8" width="80.0" height="80.0" xmlns="http://www.w3.org/2000/svg">
<path d="M0.23227 -0.07540 L0.30140 -0.03596 L0.30541 -0.03464 L0.30944 -0.03387 L0.31346 -0.03364 L0.31743 -0.03392 L0.32130 -0.03470 L0.32502 -0.03597 L0.32856 -0.03771 L0.33187 -0.03990 L0.33491 -0.04252 L0.33763 -0.04557 L0.34000 -0.04902 L0.34183 -0.05296 L0.34314 -0.05698 L0.34393 -0.06103 L0.34420 -0.06508 L0.34396 -0.06907 L0.34322 -0.07296 L0.34198 -0.07670 L0.34025 -0.08024 L0.33804 -0.08355 L0.33534 -0.08656 L0.33216 -0.08924 L0.22731 -0.15021 L0.05678 -0.05174 L0.12858 -0.02015 L0.06463 0.09065 L-0.21477 0.09065 L-0.21477 -0.00246 L-0.27686 -0.00246 L-0.27673 0.09475 L-0.27566 0.10282 L-0.27356 0.11063 L-0.27047 0.11809 L-0.26643 0.12509 L-0.26148 0.13155 L-0.25568 0.13735 L-0.24922 0.14230 L-0.24221 0.14634 L-0.23476 0.14943 L-0.22694 0.15153 L-0.21888 0.15259 L0.07039 0.15246 L0.07601 0.15168 L0.08146 0.15040 L0.08672 0.14865 L0.09176 0.14646 L0.10111 0.14084 L0.10929 0.13374 L0.11612 0.12537 Z M-0.02911 -0.16374 L-0.03016 -0.16764 L-0.03170 -0.17137 L-0.03372 -0.17488 L-0.03619 -0.17811 L-0.03909 -0.18100 L-0.04233 -0.18348 L-0.04583 -0.18550 L-0.04956 -0.18704 L-0.05346 -0.18809 L-0.05750 -0.18863 L-0.18578 -0.18863 L-0.18981 -0.18809 L-0.19372 -0.18704 L-0.19745 -0.18550 L-0.20095 -0.18348 L-0.20418 -0.18100 L-0.20708 -0.17811 L-0.20956 -0.17488 L-0.21158 -0.17137 L-0.21312 -0.16764 L-0.21417 -0.16374 L-0.21471 -0.15970 L-0.21471 -0.15561 L-0.21417 -0.15157 L-0.21312 -0.14767 L-0.21158 -0.14394 L-0.20956 -0.14043 L-0.20708 -0.13720 L-0.20418 -0.13431 L-0.20095 -0.13183 L-0.19745 -0.12981 L-0.19372 -0.12827 L-0.18981 -0.12722 L-0.18578 -0.12668 L-0.18373 -0.12662 L-0.05955 -0.12662 L-0.05750 -0.12668 L-0.05346 -0.12722 L-0.04956 -0.12827 L-0.04583 -0.12981 L-0.04233 -0.13183 L-0.03909 -0.13431 L-0.03619 -0.13720 L-0.03372 -0.14043 L-0.03170 -0.14394 L-0.03016 -0.14767 L-0.02911 -0.15157 L-0.02857 -0.15561 L-0.02857 -0.15970 Z M-0.15268 -0.12662 L-0.05955 -0.12662 L-0.18373 -0.12662 Z M-0.09059 -0.12662 L-0.05955 -0.12662 L-0.15268 -0.12662 Z M0.35390 0.16839 L0.35970 0.16259 L0.36465 0.15613 L0.36869 0.14913 L0.37178 0.14167 L0.37388 0.13386 L0.37495 0.12579 L0.37508 0.12169 L0.37386 0.11088 L0.37048 0.09931 L0.35898 0.07518 L0.34404 0.05189 L0.31299 0.01306 L0.28195 0.05189 L0.26700 0.07518 L0.25550 0.09931 L0.25212 0.11088 L0.25090 0.12169 L0.25104 0.12579 L0.25211 0.13386 L0.25420 0.14167 L0.25729 0.14913 L0.26133 0.15613 L0.26628 0.16259 L0.27208 0.16839 L0.27854 0.17334 L0.28555 0.17738 L0.29301 0.18047 L0.30082 0.18256 L0.30889 0.18363 L0.31709 0.18363 L0.32516 0.18256 L0.33297 0.18047 L0.34043 0.17738 L0.34744 0.17334 Z M0.12858 -0.02015 L0.05678 -0.05174 L0.02520 -0.03350 L0.02237 -0.03802 L0.01916 -0.04227 L0.01559 -0.04621 L0.00749 -0.05310 L-0.00174 -0.05852 L-0.00671 -0.06063 L-0.01190 -0.06231 L-0.01728 -0.06353 L-0.02282 -0.06428 L-0.09059 -0.06454 L-0.09059 -0.12662 L-0.15268 -0.12662 L-0.15268 -0.06454 L-0.21888 -0.06440 L-0.22694 -0.06334 L-0.23476 -0.06124 L-0.24221 -0.05815 L-0.24922 -0.05411 L-0.25568 -0.04916 L-0.26148 -0.04336 L-0.26643 -0.03690 L-0.27047 -0.02990 L-0.27356 -0.02244 L-0.27566 -0.01463 L-0.27673 -0.00656 L-0.27686 -0.00246 L-0.00708 -0.00246 L0.02117 0.04192 Z M-0.21477 -0.00246 L-0.00708 -0.00246 L-0.27686 -0.00246 Z M-0.27524 -0.15021 L-0.27909 -0.15096 L-0.28300 -0.15121 L-0.28691 -0.15096 L-0.29080 -0.15021 L-0.29461 -0.14894 L-0.29829 -0.14718 L-0.30181 -0.14491 L-0.30512 -0.14214 L-0.36091 -0.08589 L-0.36312 -0.08246 L-0.36484 -0.07882 L-0.36607 -0.07502 L-0.36680 -0.07113 L-0.36705 -0.06718 L-0.36680 -0.06323 L-0.36607 -0.05933 L-0.36484 -0.05554 L-0.36312 -0.05190 L-0.36091 -0.04847 L-0.35820 -0.04530 L-0.35503 -0.04259 L-0.35160 -0.04038 L-0.34796 -0.03866 L-0.34416 -0.03743 L-0.34027 -0.03670 L-0.33632 -0.03645 L-0.33237 -0.03670 L-0.32847 -0.03743 L-0.32467 -0.03866 L-0.32103 -0.04038 L-0.31760 -0.04259 L-0.26134 -0.09837 L-0.25857 -0.10167 L-0.25630 -0.10519 L-0.25453 -0.10888 L-0.25327 -0.11268 L-0.25251 -0.11657 L-0.25226 -0.12049 L-0.25251 -0.12439 L-0.25327 -0.12824 L-0.25453 -0.13198 L-0.25630 -0.13557 L-0.25857 -0.13897 L-0.26134 -0.14214 L-0.26450 -0.14491 L-0.26790 -0.14718 L-0.27150 -0.14894 Z" color="inherit"/>
</svg>
