<svg viewBox="-0.4 -0.4 0.8 0.8" width="80.0" height="80.0" xmlns="http://www.w3.org/2000/svg">
<path d="M0.30944 0.13025 L0.32359 0.08887 L0.32865 0.06735 L0.33454 0.02286 L0.33454 -0.02286 L0.32865 -0.06735 L0.32359 -0.08887 L0.30944 -0.13024 L0.29017 -0.16906 L0.26608 -0.20492 L0.23750 -0.23744 L0.20676 -0.20672 L0.23161 -0.17860 L0.25281 -0.14754 L0.26998 -0.11383 L0.28272 -0.07780 L0.29065 -0.03975 L0.29269 -0.02007 L0.29269 0.02007 L0.29065 0.03976 L0.28272 0.07780 L0.26998 0.11383 L0.25281 0.14754 L0.23161 0.17860 L0.20676 0.20672 L0.23750 0.23745 L0.26608 0.20492 L0.29017 0.16906 Z M0.06818 0.02933 L0.00000 0.02095 L0.04634 0.06648 L0.05454 0.07255 L0.06332 0.07738 L0.07260 0.08091 L0.08226 0.08307 L0.09221 0.08380 L0.10244 0.08304 L0.11225 0.08080 L0.12156 0.07719 L0.13027 0.07232 L0.13829 0.06629 L0.14554 0.05919 L0.15192 0.05113 L0.15734 0.04221 L0.16171 0.03254 L0.16495 0.02221 L0.16696 0.01133 L0.16764 0.00000 L0.16696 -0.01145 L0.16495 -0.02241 L0.16171 -0.03277 L0.15734 -0.04246 L0.15192 -0.05137 L0.14554 -0.05940 L0.13829 -0.06645 L0.13027 -0.07244 L0.12156 -0.07727 L0.11225 -0.08084 L0.10244 -0.08305 L0.09221 -0.08380 L0.08226 -0.08309 L0.07263 -0.08100 L0.06343 -0.07759 L0.05479 -0.07292 L0.04683 -0.06706 L0.00000 -0.02095 L0.03856 0.00000 L0.07374 -0.03482 L0.07701 -0.03731 L0.08051 -0.03928 L0.08421 -0.04072 L0.08811 -0.04160 L0.09221 -0.04190 L0.09674 -0.04152 L0.10109 -0.04041 L0.10522 -0.03861 L0.10909 -0.03619 L0.11266 -0.03318 L0.11588 -0.02964 L0.11872 -0.02562 L0.12114 -0.02117 L0.12309 -0.01633 L0.12453 -0.01115 L0.12543 -0.00569 L0.12573 0.00000 L0.12542 0.00558 L0.12451 0.01096 L0.12305 0.01609 L0.12108 0.02092 L0.11864 0.02539 L0.11578 0.02944 L0.11254 0.03302 L0.10897 0.03607 L0.10511 0.03854 L0.10099 0.04037 L0.09668 0.04151 L0.09221 0.04190 L0.08968 0.04178 L0.08727 0.04145 L0.08281 0.04020 L0.07883 0.03834 L0.07534 0.03607 L0.07234 0.03356 Z M-0.23161 0.17860 L-0.25281 0.14754 L-0.26997 0.11383 L-0.28272 0.07780 L-0.29065 0.03976 L-0.29268 0.02007 L-0.29268 -0.02007 L-0.29065 -0.03975 L-0.28272 -0.07780 L-0.26997 -0.11383 L-0.25281 -0.14754 L-0.23161 -0.17860 L-0.20676 -0.20672 L-0.23749 -0.23744 L-0.26608 -0.20492 L-0.29017 -0.16906 L-0.30944 -0.13024 L-0.32359 -0.08887 L-0.32865 -0.06735 L-0.33454 -0.02286 L-0.33454 0.02286 L-0.32865 0.06735 L-0.32359 0.08887 L-0.30944 0.13025 L-0.29017 0.16906 L-0.26608 0.20492 L-0.23749 0.23745 L-0.20676 0.20672 Z M-0.06339 0.07759 L-0.05470 0.07292 L-0.04666 0.06706 L0.00000 0.02095 L0.06818 0.02933 L0.03856 0.00000 L0.00000 -0.02095 L-0.03856 0.00000 L-0.06985 0.03101 L-0.07069 0.03213 L-0.07374 0.03498 L-0.07701 0.03739 L-0.08050 0.03932 L-0.08420 0.04073 L-0.08811 0.04161 L-0.09220 0.04190 L-0.09668 0.04151 L-0.10099 0.04037 L-0.10510 0.03854 L-0.10897 0.03607 L-0.11254 0.03302 L-0.11578 0.02944 L-0.11864 0.02539 L-0.12107 0.02092 L-0.12305 0.01609 L-0.12451 0.01096 L-0.12542 0.00558 L-0.12573 0.00000 L-0.16764 0.00000 L-0.16695 0.01133 L-0.16495 0.02221 L-0.16171 0.03254 L-0.15734 0.04221 L-0.15191 0.05113 L-0.14553 0.05919 L-0.13829 0.06629 L-0.13026 0.07232 L-0.12155 0.07719 L-0.11225 0.08080 L-0.10243 0.08304 L-0.09220 0.08380 L-0.08226 0.08309 L-0.07261 0.08100 Z M-0.12305 -0.01609 L-0.12107 -0.02092 L-0.11864 -0.02539 L-0.11578 -0.02944 L-0.11254 -0.03301 L-0.10897 -0.03607 L-0.10510 -0.03854 L-0.10099 -0.04037 L-0.09668 -0.04151 L-0.09220 -0.04190 L-0.08968 -0.04178 L-0.08727 -0.04144 L-0.08281 -0.04020 L-0.07883 -0.03837 L-0.07533 -0.03615 L-0.07234 -0.03372 L-0.06985 -0.03129 L-0.06985 -0.03017 L-0.06817 -0.02933 L-0.03856 0.00000 L0.00000 -0.02095 L-0.04634 -0.06657 L-0.05453 -0.07267 L-0.06332 -0.07748 L-0.07259 -0.08097 L-0.08225 -0.08309 L-0.09220 -0.08380 L-0.10243 -0.08303 L-0.11225 -0.08080 L-0.12155 -0.07719 L-0.13026 -0.07232 L-0.13829 -0.06628 L-0.14553 -0.05919 L-0.15191 -0.05113 L-0.15734 -0.04221 L-0.16171 -0.03254 L-0.16495 -0.02221 L-0.16695 -0.01133 L-0.16764 0.00000 L-0.12573 0.00000 L-0.12542 -0.00558 L-0.12451 -0.01096 Z M0.02674 0.19378 L0.15401 0.19928 L0.17812 0.17808 L0.19932 0.15398 L0.21732 0.12726 L0.23182 0.09821 L0.24254 0.06712 L0.24919 0.03429 L0.25147 0.00000 L0.24919 -0.03429 L0.24254 -0.06712 L0.23182 -0.09821 L0.21732 -0.12726 L0.19932 -0.15398 L0.17812 -0.17808 L0.15401 -0.19928 L0.12729 -0.21727 L0.09823 -0.23177 L0.06714 -0.24249 L0.03430 -0.24913 L0.00000 -0.25141 L-0.03429 -0.24913 L-0.06713 -0.24249 L-0.09823 -0.23177 L-0.12728 -0.21727 L-0.15401 -0.19928 L-0.17812 -0.17808 L-0.19932 -0.15398 L-0.21731 -0.12726 L-0.23182 -0.09821 L-0.24254 -0.06712 L-0.24918 -0.03429 L-0.25146 0.00000 L-0.24918 0.03429 L-0.24254 0.06712 L-0.23182 0.09821 L-0.21731 0.12726 L-0.19932 0.15398 L-0.17812 0.17808 L-0.15401 0.19928 L0.00000 0.19554 L-0.02674 0.19378 L-0.05232 0.18862 L-0.07653 0.18031 L-0.09914 0.16906 L-0.11992 0.15509 L-0.13865 0.13863 L-0.15512 0.11990 L-0.16909 0.09912 L-0.18035 0.07652 L-0.18866 0.05231 L-0.19382 0.02673 L-0.19558 0.00000 L-0.19382 -0.02673 L-0.18866 -0.05231 L-0.18035 -0.07651 L-0.16909 -0.09912 L-0.15512 -0.11989 L-0.13865 -0.13862 L-0.11992 -0.15509 L-0.09914 -0.16906 L-0.07653 -0.18031 L-0.05232 -0.18862 L-0.02674 -0.19377 L0.00000 -0.19554 L0.02674 -0.19377 L0.05233 -0.18862 L0.07653 -0.18031 L0.09914 -0.16906 L0.11992 -0.15509 L0.13866 -0.13862 L0.15512 -0.11989 L0.16909 -0.09912 L0.18035 -0.07651 L0.18866 -0.05231 L0.19382 -0.02673 L0.19559 0.00000 L0.19382 0.02673 L0.18866 0.05231 L0.18035 0.07652 L0.16909 0.09912 L0.15512 0.11990 L0.13866 0.13863 L0.11992 0.15509 L0.09914 0.16906 L0.07653 0.18031 L0.05233 0.18862 Z M0.09823 0.23177 L0.12729 0.21727 L0.15401 0.19928 L0.02674 0.19378 L0.00000 0.19554 L-0.15401 0.19928 L-0.12728 0.21727 L-0.09823 0.23177 L-0.06713 0.24249 L-0.03429 0.24913 L0.00000 0.25141 L0.03430 0.24913 L0.06714 0.24249 Z" color="inherit"/>
</svg>
